<svg width="1328" height="1360" viewBox="0 0 1328 1360" fill="none" xmlns="http://www.w3.org/2000/svg">
<g opacity="0.4" filter="url(#filter0_f_1_158)">
<path fill-rule="evenodd" clip-rule="evenodd" d="M347.762 -286.366C347.747 -286.35 347.731 -286.333 347.716 -286.317C235.755 -403.292 122.746 -494.651 15.4001 -557.288C-123.953 -638.555 -253.826 -671.337 -359.746 -648.766C-428.667 -634.077 -487.436 -595.921 -532.069 -532.388C-578.212 -466.705 -605.395 -379.168 -614.875 -276.465C-615.798 -491.844 -571.291 -679.935 -476.781 -814.465C-296.403 -1071.22 21.4825 -1068.72 347.716 -852.322C466.111 -772.728 577.587 -673.769 679.891 -557.447C679.908 -557.457 679.926 -557.468 679.943 -557.478C727.485 -503.857 774.173 -445.758 820.009 -383.18L834.146 -363.714L846.73 -345.801L859.315 -327.887C862.961 -322.698 867.145 -316.516 871.152 -310.597C871.756 -309.705 872.355 -308.819 872.948 -307.944C939.027 -210.508 999.831 -106.093 1054.84 4.40735C1110.3 115.352 1158.84 232.995 1199.89 355.989L1199.93 356.112C1201.68 361.445 1203.43 366.777 1205.14 372.11C1354.64 833.859 1355.48 1282.65 1175.98 1538.16C1054 1711.8 869.257 1766.85 661.571 1717.29C787.835 1736.76 894.426 1699.91 965.361 1598.94C1005.67 1541.56 1031.47 1467.58 1043.64 1381.71C1064.99 1231.24 1044.94 1043.39 988.726 840.547L988.097 838.219C956.01 724.934 916.944 615.913 871.355 512.432C797.022 341.956 701.253 169.45 586.734 6.43732C512.407 -99.6472 432.52 -197.53 347.762 -286.366Z" fill="url(#paint0_linear_1_158)"/>
<g filter="url(#filter1_i_1_158)">
<path fill-rule="evenodd" clip-rule="evenodd" d="M104.995 1368.03C191.059 1326.53 273.772 1272.11 351.736 1205.67L349.722 1203.7C229.541 1101.15 118.81 977.666 20.0912 836.116C-50.3291 736.18 -114.592 627.824 -171.991 512.24C-172.118 511.98 -172.246 511.718 -172.376 511.455C-172.929 510.327 -173.494 509.174 -174.004 508.061C-256.643 340.272 -317.636 168.422 -355.389 4.09576C-355.809 2.30438 -356.186 0.572693 -356.564 -1.21863C-412.23 -247.767 -414.536 -476.94 -355.808 -649.148L-360.003 -648.193C-359.923 -648.522 -359.825 -648.841 -359.71 -649.148C-428.631 -634.28 -487.4 -596.304 -532.034 -532.771C-578.261 -466.968 -605.359 -379.55 -614.84 -276.846C-614.784 -261.839 -614.504 -246.692 -614.001 -231.406C-620.964 -60.3923 -583.588 147.403 -507.703 366.067C-507.074 368.216 -506.403 370.127 -505.732 372.038C-461.387 497.222 -409.454 616.66 -350.523 728.994C-332.121 765.696 -312.812 802.12 -292.593 838.266C-264.459 888.623 -234.62 938.162 -203.074 986.887L-202.277 988.141C-184.519 1015.53 -166.243 1042.6 -147.451 1069.35C-87.1491 1155.35 -22.8806 1235.52 44.9254 1309.33L45.8061 1310.29C64.1516 1330.19 82.5947 1349.44 101.136 1368.03L103.023 1367.13L104.282 1368.38L104.995 1368.03ZM965.352 1599.13C1005.66 1541.75 1031.46 1467.95 1043.63 1381.9C922.229 1456 764.336 1448.18 595.158 1368.41L594.445 1368.05C516.539 1446.61 433.981 1515.38 347.704 1573.58L343.215 1576.5L347.704 1579.61C458.951 1655.68 565.92 1702.73 661.562 1717.48C787.827 1736.95 894.418 1700.1 965.352 1599.13Z" fill="#5DFDB0"/>
</g>
<g filter="url(#filter2_i_1_158)">
<path fill-rule="evenodd" clip-rule="evenodd" d="M1199.82 356.052C1201.58 361.426 1203.34 366.8 1205.06 372.174C1289.17 131.895 1326.96 -96.0242 1310.31 -276.472C1300.83 -379.176 1273.65 -466.713 1227.5 -532.396C1182.87 -595.929 1124.1 -634.084 1055.18 -648.773C1114.28 -475.312 1111.56 -244.108 1054.76 4.47058C1110.23 115.415 1158.76 233.058 1199.82 356.052ZM898.584 987.015C930.325 938.768 960.374 890.003 988.731 840.721L988.185 838.632C956.099 725.348 917.032 616.327 871.442 512.846C814.044 628.43 749.782 736.786 679.361 836.721C580.643 978.272 469.911 1101.75 349.73 1204.31L347.801 1205.92C270.399 1271.78 188.325 1325.82 102.947 1367.14L101.06 1368.03L100.347 1368.39C-68.8313 1448.17 -226.894 1455.99 -348.125 1381.89C-335.96 1467.75 -310.161 1541.73 -269.848 1599.12C-198.913 1700.09 -92.3227 1736.93 33.9421 1717.47C129.668 1702.72 236.553 1655.66 347.801 1579.59L352.288 1576.49C437.303 1517.12 518.589 1447.51 595.254 1368.39C613.432 1349.56 631.61 1330.2 649.787 1310.29L650.668 1309.34C718.443 1235.56 782.683 1155.43 842.96 1069.48C861.753 1042.69 880.028 1015.62 897.786 988.268L898.584 987.015Z" fill="url(#paint1_linear_1_158)"/>
</g>
</g>
<defs>
<filter id="filter0_f_1_158" x="-664.889" y="-1061.07" width="2029.05" height="2845.79" filterUnits="userSpaceOnUse" color-interpolation-filters="sRGB">
<feFlood flood-opacity="0" result="BackgroundImageFix"/>
<feBlend mode="normal" in="SourceGraphic" in2="BackgroundImageFix" result="shape"/>
<feGaussianBlur stdDeviation="25" result="effect1_foregroundBlur_1_158"/>
</filter>
<filter id="filter1_i_1_158" x="-614.84" y="-649.148" width="1658.47" height="2388.3" filterUnits="userSpaceOnUse" color-interpolation-filters="sRGB">
<feFlood flood-opacity="0" result="BackgroundImageFix"/>
<feBlend mode="normal" in="SourceGraphic" in2="BackgroundImageFix" result="shape"/>
<feColorMatrix in="SourceAlpha" type="matrix" values="0 0 0 0 0 0 0 0 0 0 0 0 0 0 0 0 0 0 127 0" result="hardAlpha"/>
<feOffset dy="16.6628"/>
<feGaussianBlur stdDeviation="41.657"/>
<feComposite in2="hardAlpha" operator="arithmetic" k2="-1" k3="1"/>
<feColorMatrix type="matrix" values="0 0 0 0 0 0 0 0 0 0 0 0 0 0 0 0 0 0 0.15 0"/>
<feBlend mode="normal" in2="shape" result="effect1_innerShadow_1_158"/>
</filter>
<filter id="filter2_i_1_158" x="-348.125" y="-648.773" width="1662.28" height="2387.91" filterUnits="userSpaceOnUse" color-interpolation-filters="sRGB">
<feFlood flood-opacity="0" result="BackgroundImageFix"/>
<feBlend mode="normal" in="SourceGraphic" in2="BackgroundImageFix" result="shape"/>
<feColorMatrix in="SourceAlpha" type="matrix" values="0 0 0 0 0 0 0 0 0 0 0 0 0 0 0 0 0 0 127 0" result="hardAlpha"/>
<feOffset dy="16.6628"/>
<feGaussianBlur stdDeviation="41.657"/>
<feComposite in2="hardAlpha" operator="arithmetic" k2="-1" k3="1"/>
<feColorMatrix type="matrix" values="0 0 0 0 0 0 0 0 0 0 0 0 0 0 0 0 0 0 0.15 0"/>
<feBlend mode="normal" in2="shape" result="effect1_innerShadow_1_158"/>
</filter>
<linearGradient id="paint0_linear_1_158" x1="-614.889" y1="1734.72" x2="-2566.52" y2="-2365.35" gradientUnits="userSpaceOnUse">
<stop stop-color="#149EE3"/>
<stop offset="1" stop-color="#5DFDB0"/>
</linearGradient>
<linearGradient id="paint1_linear_1_158" x1="852.91" y1="498.673" x2="683.209" y2="929.518" gradientUnits="userSpaceOnUse">
<stop stop-color="#5DFDB0"/>
<stop offset="1" stop-color="#5DFDF3"/>
</linearGradient>
</defs>
</svg>
