<svg width="698" height="686" viewBox="0 0 698 686" fill="none" xmlns="http://www.w3.org/2000/svg">
<g opacity="0.75" filter="url(#filter0_f_1_132)">
<path d="M17.2742 40.5732C-44.2169 -182.251 183.569 -204.932 347.955 -137.65C443.866 -103.048 506.853 -210.658 625.669 -167.712C744.485 -124.767 602.049 10.5117 783.852 79.9402C965.654 149.369 876.9 460.008 718.002 463.586C559.103 467.165 602.765 519.416 443.866 638.947C284.968 758.479 17.2745 592.423 83.84 417.062C150.405 241.701 83.8392 281.784 17.2742 40.5732Z" stroke="url(#paint0_linear_1_132)" stroke-width="3"/>
<path d="M322.26 213.985C315.165 192.763 348.397 158.525 375.118 173.137C399.588 186.517 424.505 177.493 440.968 183.458C484.307 199.162 468.365 207.474 487.739 226.125C511.315 248.82 522.564 308.25 468.365 308.25C423.79 308.25 437.127 329.9 403.748 339.493C370.369 349.086 332.516 332.757 332.516 289.766C332.516 273.622 334.077 249.333 322.26 213.985Z" stroke="url(#paint1_linear_1_132)" stroke-width="3"/>
<path d="M39.3592 55.2551C-17.1868 -149.241 192.912 -172.973 344.783 -110.48C434.2 -77.8072 493.726 -176.454 603.237 -136.87C715.191 -96.4015 584.255 27.3345 751.291 92.1469C918.71 157.327 839.047 445.129 689.666 448.382C541.161 451.635 582.066 501.104 434.578 610.641C287.091 720.178 40.2918 567.734 100.806 404.407C161.32 243.52 100.947 277.751 39.3592 55.2551Z" stroke="url(#paint2_linear_1_132)" stroke-width="3"/>
<path d="M70.4444 69.9383C18.8435 -116.231 211.256 -141.013 350.612 -83.308C433.534 -52.5646 489.599 -142.249 589.805 -106.028C694.898 -68.0351 575.461 44.1586 727.731 104.355C880.765 165.286 810.193 430.251 670.331 433.179C532.219 436.107 570.367 482.794 434.29 582.337C298.214 681.879 72.3093 543.046 126.772 391.753C181.235 245.341 127.055 273.719 70.4444 69.9383Z" stroke="url(#paint3_linear_1_132)" stroke-width="3"/>
<path d="M101.53 84.6223C54.874 -83.2195 229.6 -109.052 356.441 -56.1354C432.868 -27.3213 485.472 -108.044 576.373 -75.1837C674.605 -39.6678 566.668 60.9835 704.171 116.564C842.821 173.247 781.34 415.374 650.997 417.977C523.277 420.579 558.668 464.484 434.003 554.033C309.337 643.581 104.327 518.36 152.738 379.1C201.149 247.162 153.163 269.688 101.53 84.6223Z" stroke="url(#paint4_linear_1_132)" stroke-width="3"/>
<path d="M123.615 99.3067C81.9047 -50.2077 238.944 -77.091 353.27 -28.9624C423.202 -2.07749 472.346 -73.8376 553.942 -44.3395C645.312 -11.3001 548.874 77.8089 671.612 128.773C795.877 181.207 743.488 400.497 622.662 402.775C505.336 405.052 537.97 446.175 424.715 525.729C311.46 605.283 127.345 493.673 169.705 366.447C212.065 248.983 170.272 265.658 123.615 99.3067Z" stroke="url(#paint5_linear_1_132)" stroke-width="3"/>
<path d="M154.704 114.735C117.939 -16.452 257.291 -44.3859 359.102 -1.04541C422.54 23.9102 468.222 -38.8876 540.514 -12.7514C625.022 17.8115 540.084 95.3781 648.055 141.726C757.936 189.912 714.638 386.365 603.331 388.317C496.397 390.269 526.275 428.61 424.431 498.17C322.587 567.729 159.366 469.731 195.674 354.538C231.983 251.549 196.384 262.371 154.704 114.735Z" stroke="url(#paint6_linear_1_132)" stroke-width="3"/>
<path d="M185.791 131.044C153.97 18.1847 275.635 -10.7998 364.932 27.7525C421.875 50.7789 464.097 -3.05656 527.083 19.7178C604.73 47.8042 531.291 113.828 624.496 155.56C719.993 199.498 685.786 373.113 583.997 374.74C487.456 376.367 514.577 411.926 424.144 471.491C333.711 531.056 191.385 446.669 221.642 343.51C251.899 254.995 222.493 259.966 185.791 131.044Z" stroke="url(#paint7_linear_1_132)" stroke-width="3"/>
<path d="M216.878 147.402C190.003 52.8695 293.981 22.8343 370.762 56.5985C421.211 77.6956 459.972 32.8224 513.654 52.2349C584.439 77.8448 522.5 132.327 600.938 169.442C682.051 209.131 656.935 359.91 564.664 361.211C478.516 362.512 502.881 395.29 423.859 444.861C344.836 494.431 223.404 423.656 247.61 332.531C271.816 258.49 248.603 257.608 216.878 147.402Z" stroke="url(#paint8_linear_1_132)" stroke-width="3"/>
<path d="M237.966 163.83C216.036 87.6246 302.328 56.5389 366.594 85.5149C410.548 104.683 445.848 68.7719 490.225 84.8225C554.149 107.956 503.709 150.895 567.382 183.395C634.11 218.835 618.086 346.777 535.332 347.753C459.578 348.729 481.185 378.724 413.574 418.301C345.963 457.877 245.425 400.713 263.579 321.621C281.734 262.054 264.714 255.321 237.966 163.83Z" stroke="url(#paint9_linear_1_132)" stroke-width="3"/>
<path d="M269.057 180.362C252.072 122.484 320.677 90.3478 372.428 114.536C409.887 131.774 441.727 104.826 476.799 117.515C533.861 138.171 494.921 169.568 543.827 197.452C596.171 228.644 589.238 333.748 516.003 334.399C450.641 335.049 469.492 362.263 413.292 391.845C357.091 421.427 277.448 377.874 289.551 310.816C301.654 265.724 290.828 253.139 269.057 180.362Z" stroke="url(#paint10_linear_1_132)" stroke-width="3"/>
<path d="M300.152 197.052C288.112 157.501 339.031 124.314 378.267 143.714C409.231 159.024 437.61 141.037 463.377 150.364C513.578 168.544 486.137 188.399 520.277 211.666C558.237 238.61 560.395 320.877 496.678 321.202C441.709 321.527 457.804 345.959 413.014 365.547C368.224 385.134 309.476 355.194 315.527 300.169C321.579 269.551 316.946 251.113 300.152 197.052Z" stroke="url(#paint11_linear_1_132)" stroke-width="3"/>
</g>
<defs>
<filter id="filter0_f_1_132" x="0.500099" y="-184.5" width="890.994" height="870.489" filterUnits="userSpaceOnUse" color-interpolation-filters="sRGB">
<feFlood flood-opacity="0" result="BackgroundImageFix"/>
<feBlend mode="normal" in="SourceGraphic" in2="BackgroundImageFix" result="shape"/>
<feGaussianBlur stdDeviation="2.5" result="effect1_foregroundBlur_1_132"/>
</filter>
<linearGradient id="paint0_linear_1_132" x1="6.99993" y1="679.489" x2="-456.496" y2="-739.664" gradientUnits="userSpaceOnUse">
<stop stop-color="#149EE3"/>
<stop offset="1" stop-color="#5DFDB0"/>
</linearGradient>
<linearGradient id="paint1_linear_1_132" x1="321.289" y1="342.151" x2="231.871" y2="53.8806" gradientUnits="userSpaceOnUse">
<stop stop-color="#149EE3"/>
<stop offset="1" stop-color="#5DFDB0"/>
</linearGradient>
<linearGradient id="paint2_linear_1_132" x1="29.935" y1="647.72" x2="-398.495" y2="-667.149" gradientUnits="userSpaceOnUse">
<stop stop-color="#149EE3"/>
<stop offset="1" stop-color="#5DFDB0"/>
</linearGradient>
<linearGradient id="paint3_linear_1_132" x1="61.8702" y1="615.953" x2="-331.497" y2="-594.63" gradientUnits="userSpaceOnUse">
<stop stop-color="#149EE3"/>
<stop offset="1" stop-color="#5DFDB0"/>
</linearGradient>
<linearGradient id="paint4_linear_1_132" x1="93.8053" y1="584.188" x2="-264.502" y2="-522.107" gradientUnits="userSpaceOnUse">
<stop stop-color="#149EE3"/>
<stop offset="1" stop-color="#5DFDB0"/>
</linearGradient>
<linearGradient id="paint5_linear_1_132" x1="116.74" y1="552.424" x2="-206.513" y2="-449.58" gradientUnits="userSpaceOnUse">
<stop stop-color="#149EE3"/>
<stop offset="1" stop-color="#5DFDB0"/>
</linearGradient>
<linearGradient id="paint6_linear_1_132" x1="148.678" y1="521.405" x2="-140.246" y2="-377.306" gradientUnits="userSpaceOnUse">
<stop stop-color="#149EE3"/>
<stop offset="1" stop-color="#5DFDB0"/>
</linearGradient>
<linearGradient id="paint7_linear_1_132" x1="180.613" y1="491.269" x2="-74.8338" y2="-305.337" gradientUnits="userSpaceOnUse">
<stop stop-color="#149EE3"/>
<stop offset="1" stop-color="#5DFDB0"/>
</linearGradient>
<linearGradient id="paint8_linear_1_132" x1="212.549" y1="461.184" x2="-9.46885" y2="-233.388" gradientUnits="userSpaceOnUse">
<stop stop-color="#149EE3"/>
<stop offset="1" stop-color="#5DFDB0"/>
</linearGradient>
<linearGradient id="paint9_linear_1_132" x1="234.484" y1="431.175" x2="45.8288" y2="-161.468" gradientUnits="userSpaceOnUse">
<stop stop-color="#149EE3"/>
<stop offset="1" stop-color="#5DFDB0"/>
</linearGradient>
<linearGradient id="paint10_linear_1_132" x1="266.419" y1="401.279" x2="111.028" y2="-89.5913" gradientUnits="userSpaceOnUse">
<stop stop-color="#149EE3"/>
<stop offset="1" stop-color="#5DFDB0"/>
</linearGradient>
<linearGradient id="paint11_linear_1_132" x1="298.354" y1="371.561" x2="176.075" y2="-17.7876" gradientUnits="userSpaceOnUse">
<stop stop-color="#149EE3"/>
<stop offset="1" stop-color="#5DFDB0"/>
</linearGradient>
</defs>
</svg>
